<svg width="29" height="29" viewBox="0 0 29 29" fill="none" xmlns="http://www.w3.org/2000/svg">
<path fill-rule="evenodd" clip-rule="evenodd" d="M4.54144 4.54144C6.00842 3.07447 8.21655 2.5 11.1104 2.5H17.8896C20.7835 2.5 22.9916 3.07447 24.4586 4.54144C25.9255 6.00842 26.5 8.21655 26.5 11.1104V17.8896C26.5 20.7835 25.9255 22.9916 24.4586 24.4586C22.9916 25.9255 20.7835 26.5 17.8896 26.5H11.1104C8.21655 26.5 6.00842 25.9255 4.54144 24.4586C3.07447 22.9916 2.5 20.7835 2.5 17.8896V11.1104C2.5 8.21655 3.07447 6.00842 4.54144 4.54144ZM5.53323 5.53323C4.45799 6.60847 3.9026 8.35488 3.9026 11.1104V17.8896C3.9026 20.6451 4.45799 22.3915 5.53323 23.4668C6.60847 24.542 8.35488 25.0974 11.1104 25.0974H17.8896C20.6451 25.0974 22.3915 24.542 23.4668 23.4668C24.542 22.3915 25.0974 20.6451 25.0974 17.8896V11.1104C25.0974 8.35488 24.542 6.60847 23.4668 5.53323C22.3915 4.45799 20.6451 3.9026 17.8896 3.9026H11.1104C8.35488 3.9026 6.60847 4.45799 5.53323 5.53323Z" fill="#292D32"/>
<path fill-rule="evenodd" clip-rule="evenodd" d="M14.5462 6.20897C12.9962 6.20897 11.5097 6.82469 10.4137 7.92068C9.31775 9.01667 8.70203 10.5032 8.70203 12.0531C8.70203 13.6031 9.31775 15.0896 10.4137 16.1856C11.5097 17.2816 12.9962 17.8973 14.5462 17.8973C16.0962 17.8973 17.5826 17.2816 18.6786 16.1856C19.7746 15.0896 20.3903 13.6031 20.3903 12.0531C20.3903 10.5032 19.7746 9.01667 18.6786 7.92068C17.5826 6.82469 16.0962 6.20897 14.5462 6.20897ZM7.29943 12.0531C7.30018 10.9943 7.53297 9.94844 7.9814 8.98923C8.42983 8.03002 9.08302 7.18073 9.895 6.50113C10.707 5.82152 11.658 5.32811 12.6812 5.05561C13.7044 4.78311 14.7749 4.73815 15.8173 4.92388C16.8598 5.10961 17.8488 5.52152 18.7149 6.13064C19.5811 6.73976 20.3032 7.53127 20.8305 8.4495C21.3578 9.36772 21.6774 10.3903 21.767 11.4454C21.8565 12.5005 21.7138 13.5623 21.3488 14.5563L23.4882 16.7705C23.7285 17.0202 23.9286 17.2278 24.0782 17.4008C24.226 17.5709 24.3775 17.7654 24.4663 17.9917C24.7786 18.7819 24.528 19.7169 23.7753 20.177C23.5602 20.3097 23.3134 20.364 23.102 20.3995C22.8851 20.4369 22.6102 20.465 22.2857 20.4996L22.2633 20.5014C21.8341 20.5473 21.7527 20.5613 21.6976 20.5828C21.6109 20.6167 21.5328 20.6691 21.4687 20.7365C21.4045 20.8039 21.3559 20.8845 21.3263 20.9727C21.302 21.0382 21.288 21.1345 21.2441 21.5749L21.2422 21.5955C21.2085 21.933 21.1805 22.2163 21.1459 22.4389C21.1122 22.654 21.0617 22.9008 20.9374 23.1168C20.4979 23.8854 19.5731 24.1734 18.7708 23.834C18.5455 23.7386 18.3538 23.5787 18.1911 23.4273C18.0228 23.272 17.8236 23.0645 17.5833 22.8148L17.5646 22.7961L14.5462 19.6178L11.5241 22.8017L11.51 22.8157C11.2697 23.0654 11.0696 23.273 10.9022 23.4282C10.7386 23.5797 10.5469 23.7396 10.3225 23.8349C9.51834 24.1744 8.5945 23.8864 8.15501 23.1177C8.03159 22.9017 7.98016 22.6558 7.9465 22.4389C7.9119 22.2173 7.88385 21.934 7.85112 21.5973L7.84831 21.5758C7.8053 21.1354 7.79034 21.04 7.76696 20.9736C7.73738 20.8855 7.6888 20.8048 7.62466 20.7375C7.56052 20.6701 7.48237 20.6176 7.39574 20.5837C7.33964 20.5622 7.25829 20.5482 6.82909 20.5024L6.80759 20.5005C6.48312 20.4659 6.20821 20.4369 5.99127 20.4004C5.77995 20.3659 5.53309 20.3107 5.31709 20.1779C4.5653 19.7179 4.3147 18.7828 4.62608 17.9927C4.71584 17.7664 4.86639 17.5719 5.01413 17.4017C5.16374 17.2287 5.36384 17.0211 5.60509 16.7715L7.74359 14.5572C7.44812 13.7555 7.29772 12.9076 7.29943 12.0531ZM8.40094 15.8953L6.62805 17.7308C6.36998 17.9983 6.19605 18.1778 6.07449 18.319C6.02005 18.3761 5.97179 18.4388 5.93049 18.506C5.84634 18.7211 5.93049 18.9025 6.04177 18.9763C6.05018 18.9792 6.09787 18.995 6.22317 19.0166C6.39148 19.0446 6.62525 19.0699 6.97683 19.1073L7.04696 19.1147C7.36488 19.1475 7.64634 19.1774 7.89787 19.2737C8.45798 19.4888 8.88624 19.9376 9.08727 20.5005C9.17704 20.752 9.20509 21.0363 9.23689 21.3673L9.24437 21.4374C9.2799 21.8012 9.30421 22.0443 9.33226 22.2229C9.35657 22.3744 9.37528 22.423 9.37621 22.4258C9.45102 22.552 9.60437 22.6137 9.77361 22.5427C9.77361 22.5427 9.82037 22.5174 9.94753 22.3987C10.0831 22.2734 10.2561 22.0948 10.5132 21.8283L10.5151 21.8264L13.0585 19.1465C12.1034 18.9457 11.1987 18.5542 10.3984 17.9956C9.59808 17.437 8.91872 16.7226 8.40094 15.8953ZM16.0339 19.1475C16.9892 18.9466 17.8942 18.5551 18.6946 17.9963C19.4951 17.4375 20.1746 16.7229 20.6924 15.8953L22.4653 17.7308C22.7233 17.9983 22.8963 18.1778 23.0179 18.319C23.1329 18.4499 23.1591 18.5013 23.1619 18.506C23.246 18.7211 23.1619 18.9025 23.0515 18.9763C23.0422 18.9792 22.9954 18.995 22.8701 19.0166C22.7009 19.0446 22.4681 19.0699 22.1155 19.1073L22.0454 19.1147C21.7284 19.1475 21.446 19.1774 21.1945 19.2737C20.6353 19.4888 20.2061 19.9376 20.0051 20.5005C19.9153 20.752 19.8873 21.0363 19.8555 21.3673L19.848 21.4374C19.8125 21.8012 19.7882 22.0443 19.7601 22.2229C19.7367 22.3744 19.7171 22.423 19.7171 22.4258C19.6423 22.552 19.488 22.6147 19.3178 22.5427H19.3197C19.3197 22.5427 19.2729 22.5174 19.1448 22.3987C18.9515 22.2133 18.7629 22.0232 18.5791 21.8283L18.5773 21.8264L16.0339 19.1475ZM14.5471 10.2148C14.4929 10.3083 14.4305 10.4186 14.3601 10.5458L14.2685 10.7104L14.2479 10.7478C14.174 10.8824 14.0525 11.105 13.8496 11.2593C13.6429 11.4163 13.3933 11.4706 13.2483 11.5024L13.2081 11.5108L13.0295 11.551C12.8649 11.5884 12.7322 11.6183 12.6181 11.6473C12.692 11.738 12.7883 11.8521 12.9136 11.9989L13.0351 12.141L13.0632 12.1728C13.1642 12.2897 13.3278 12.4767 13.4026 12.7198C13.4774 12.9592 13.4512 13.2061 13.4353 13.3613L13.4307 13.4052L13.412 13.595C13.3977 13.7383 13.385 13.8817 13.3736 14.0252C13.4709 13.9822 13.5812 13.9317 13.713 13.8709L13.8804 13.7942L13.9178 13.7755C14.0525 13.7129 14.2862 13.6035 14.5462 13.6035C14.8071 13.6035 15.0399 13.7129 15.1745 13.7764L15.212 13.7942L15.3803 13.8709C15.5112 13.9317 15.6215 13.9831 15.7197 14.0252L15.6804 13.595L15.6617 13.4052L15.657 13.3613C15.6411 13.2051 15.6159 12.9592 15.6898 12.7198C15.7646 12.4767 15.9282 12.2897 16.0292 12.1728L16.0573 12.141L16.1788 11.9989C16.3041 11.8521 16.4004 11.738 16.4752 11.6473C16.3611 11.6193 16.2274 11.5884 16.0638 11.551L15.8852 11.5108L15.845 11.5014C15.6991 11.4706 15.4504 11.4163 15.2428 11.2583C15.0399 11.105 14.9183 10.8824 14.8454 10.7487L14.8239 10.7104L14.7323 10.5458C14.6624 10.4186 14.6004 10.3083 14.5462 10.2148M13.6233 9.06092C13.7841 8.85053 14.0768 8.54663 14.5453 8.54663C15.0147 8.54663 15.3073 8.85053 15.4682 9.06092C15.6215 9.26102 15.7767 9.53873 15.9357 9.82393L15.9563 9.86227L16.0488 10.0278L16.1012 10.1213L16.1938 10.1428L16.3714 10.183L16.4163 10.1923C16.723 10.2625 17.0269 10.3307 17.2607 10.4233C17.5197 10.5252 17.8685 10.7225 18.0041 11.1573C18.1368 11.5828 17.9695 11.9437 17.8236 12.1766C17.688 12.3916 17.4832 12.631 17.2719 12.8769L17.2438 12.9096L17.1223 13.0527L17.0456 13.1434L17.0568 13.2696L17.0755 13.4595L17.0793 13.5025C17.112 13.8316 17.1429 14.1495 17.1307 14.4039C17.1195 14.6713 17.0559 15.0753 16.6931 15.3492C16.3191 15.6335 15.9076 15.5718 15.6458 15.496C15.4046 15.4278 15.1203 15.2959 14.8323 15.1641L14.7921 15.1454L14.6247 15.0678L14.5453 15.0313L14.4658 15.0687L14.2993 15.1454L14.2582 15.1641C13.9711 15.2959 13.6859 15.4278 13.4447 15.496C13.1829 15.5708 12.7714 15.6335 12.3974 15.3492C12.0355 15.0753 11.972 14.6713 11.9598 14.4048C11.9486 14.1495 11.9785 13.8316 12.0112 13.5025L12.0159 13.4595L12.0346 13.2696L12.0458 13.1434L11.9682 13.0527L11.8467 12.9096L11.8186 12.8769C11.6082 12.631 11.4025 12.3907 11.2669 12.1756C11.121 11.9437 10.9546 11.5828 11.0864 11.1564C11.222 10.7235 11.5717 10.5252 11.8298 10.4233C12.0636 10.3307 12.3684 10.2625 12.6751 10.1933L12.7181 10.1839L12.8967 10.1428L12.9902 10.1213L13.0426 10.0278L13.1342 9.86227L13.1557 9.82393C13.3147 9.53873 13.469 9.26102 13.6233 9.06092Z" fill="#292D32"/>
</svg>
