<?xml version="1.0" encoding="UTF-8"?>
<svg xmlns="http://www.w3.org/2000/svg" version="1.1" viewBox="0 0 1000 1000">
  <!-- Generator: Adobe Illustrator 28.6.0, SVG Export Plug-In . SVG Version: 1.2.0 Build 709)  -->
  <g>
    <g id="_Слой_1" data-name="Слой_1">
      <g>
        <path d="M402.51,693.05c0-62.16,0-124.32,0-186.48,0-16.77,5.3-22.1,22.1-22.11,50.4-.03,100.8-.04,151.2,0,16.13.01,21.64,5.58,21.64,21.72.01,125.16.01,250.33,0,375.49,0,16.14-5.63,21.79-21.69,21.8-50.68.02-101.36.02-152.04,0-15.37,0-21.21-5.91-21.22-21.42-.02-63,0-126,0-189Z" fill="#292D32"/>
        <path d="M295.46,729.82c0,50.4.02,100.79,0,151.19,0,17.27-5.27,22.47-22.58,22.48-50.12,0-100.23.01-150.35,0-16.08,0-21.89-5.64-21.89-21.61-.04-101.91-.05-203.82,0-305.74,0-15.58,5.69-21.05,21.44-21.06,50.4-.03,100.79-.02,151.19,0,17,0,22.17,5.06,22.18,21.89.04,50.96.01,101.91.01,152.87Z" fill="#292D32"/>
        <path d="M704.53,771.27c0-36.95-.04-73.9.02-110.85.02-15.85,5.42-21.27,21.08-21.28,50.95-.03,101.9-.04,152.84,0,15.12.01,20.86,5.61,20.87,20.78.07,74.18.07,148.37,0,222.55-.01,15.28-6.08,21.01-21.64,21.02-50.67.02-101.34.02-152,0-15.53,0-21.13-5.62-21.15-21.35-.06-36.95-.02-73.9-.02-110.85Z" fill="#292D32"/>
        <path d="M680.66,167.21c-.08,14.82.71,29.72-3.19,44.25-9.69,36.13-34.65,56.95-68.91,68.22-6.09,2-12.39,4.12-18.7,4.53-8.4.54-13.66,4.16-18.16,11.06-5.67,8.68-13.26,15.88-21.37,22.41-31.61,25.51-68.17,25.7-100.01.53-9.06-7.17-17.13-15.37-23.57-24.92-3.56-5.29-7.67-7.67-14.09-8.71-29.26-4.75-55.23-16.1-74.17-40.11-11.05-14.02-17.47-30.12-18.33-47.83-.97-19.84-.81-39.74-.73-59.61.04-10.51,5.1-15.17,15.75-15.25,18.48-.13,36.96-.21,55.44.07,5.27.08,7.2-1.14,7.17-6.86-.1-14.26,4.45-18.45,18.59-18.46,55.72-.02,111.44-.02,167.15,0,14.2,0,18.75,4.19,18.67,18.4-.03,5.64,1.74,7.01,7.11,6.92,17.91-.3,35.84-.15,53.76-.1,13.05.04,17.45,4.49,17.58,17.75.09,9.24.02,18.48.02,27.72ZM538.01,259.61c3.94-1.31,3.29-3.98,2.52-6.8-3-11.06-5.61-22.24-9.04-33.17-1.55-4.95-.32-7.66,3.56-10.59,8.48-6.42,16.66-13.23,24.91-19.95,2.08-1.7,5.56-2.98,4.71-6.26-.92-3.58-4.63-2.37-7.22-2.53-10.34-.63-20.69-1.47-31.04-1.44-6.11.01-9.01-2.45-10.91-7.98-3.53-10.31-7.62-20.43-11.52-30.6-.77-2.01-1.11-4.72-4-4.71-2.88.02-3.2,2.74-3.98,4.74-4.03,10.43-8.23,20.8-11.87,31.37-1.73,5-4.41,7.05-9.74,7.12-10.35.14-20.7.81-31.04,1.49-2.83.19-6.99-1.33-8.01,2.58-.94,3.61,3.15,4.88,5.39,6.73,7.97,6.61,15.99,13.18,24.24,19.44,3.86,2.93,5.08,5.7,3.51,10.63-3.38,10.65-6.01,21.53-8.82,32.36-.59,2.28-2.23,5.01.68,6.85,2.44,1.54,4.2-.69,5.96-1.83,9.64-6.22,19.3-12.42,28.77-18.9,3.53-2.42,6.34-2.41,9.86,0,9.23,6.32,18.68,12.34,28.05,18.45,1.62,1.06,3.32,1.99,5.03,3ZM405.97,255.53c-2.76-10.36-5.93-19.6-7.03-29.32-2.66-23.45-.83-46.97-1.19-70.46-.08-5.12-.89-7.47-6.79-7.26-12.86.46-25.75.33-38.61.04-4.82-.11-6.33,1.53-6.19,6.23.31,10.91-.17,21.84.31,32.74,1.58,35.68,23.07,60.47,59.5,68.03ZM593.57,255.26c29.2-4.53,52.03-25.4,58.1-52.49,3.71-16.57,1.63-33.45,2.04-50.2.11-4.33-2.94-3.93-5.74-3.93-11.75,0-23.54.56-35.25-.2-8.32-.54-10.55,1.71-10.64,10.35-.31,32,4.21,64.48-8.51,96.47Z" fill="#292D32"/>
        <path d="M299.58,385.48c-.27,3.39-2.82,4.87-4.96,6.59-13.72,11.07-27.25,22.39-41.31,33.02-6.44,4.87-8.63,9.41-6.01,17.63,5.35,16.75,9.45,33.91,13.96,50.92.82,3.08,3.1,6.59-.49,9.25-3.86,2.86-6.84-.31-9.78-2.22-14.77-9.6-29.76-18.92-44.11-29.11-6.65-4.73-11.44-4.26-17.87.26-14.4,10.13-29.36,19.48-44.12,29.1-2.74,1.79-5.51,4.58-9.09,2.24-3.78-2.47-1.8-5.9-.94-9.08,4.81-17.8,9.29-35.7,14.54-53.38,1.93-6.49.32-10.31-4.79-14.26-14.61-11.3-28.9-23.01-43.28-34.59-2.34-1.89-5.58-3.61-4.41-7.32,1.27-4.06,5.05-3.71,8.42-3.88,19.01-.93,38-2.07,57.02-2.76,5.32-.19,7.96-2.34,9.74-7.2,6.54-17.84,13.42-35.55,20.15-53.32,1.09-2.87,1.76-6.34,5.59-6.49,4.37-.18,5.09,3.67,6.27,6.75,6.68,17.49,13.52,34.92,19.88,52.52,1.88,5.21,4.51,7.58,10.19,7.78,19.02.66,38.01,1.81,57.02,2.71,3.76.18,7.4.28,8.4,4.82Z" fill="#292D32"/>
        <path d="M903.34,470.08c-.67,3.2-3.15,4.68-5.31,6.42-14.18,11.39-28.23,22.96-42.63,34.06-5.14,3.96-6.73,7.76-4.8,14.24,5.19,17.4,9.65,35.02,14.32,52.57.89,3.33,3.46,7.15-.76,9.86-3.93,2.53-6.83-.83-9.76-2.73-15.02-9.74-30.13-19.34-44.88-29.48-5.38-3.7-9.41-4.05-14.98-.2-14.94,10.34-30.32,20.06-45.57,29.96-2.95,1.91-5.95,5.06-9.79,2.18-3.57-2.68-1.27-6.2-.45-9.27,4.77-17.81,9.53-35.63,14.58-53.37,1.57-5.51.76-9.34-4.06-13.05-14.4-11.11-28.49-22.62-42.56-34.14-2.79-2.28-7.79-3.93-5.75-8.96,1.88-4.62,6.62-3.24,10.38-3.44,18.16-.98,36.32-2.07,54.5-2.71,5.68-.2,8.31-2.56,10.19-7.78,6.35-17.61,13.19-35.04,19.88-52.52,1.18-3.08,1.89-6.93,6.26-6.75,3.81.16,4.51,3.63,5.6,6.49,6.65,17.5,13.55,34.91,19.86,52.53,2,5.59,4.9,7.87,10.86,8.07,19.02.62,38.02,1.79,57.02,2.69,3.83.18,7.39.54,7.84,5.34Z" fill="#292D32"/>
        <path d="M500.01,433.87c-26.33,0-52.66-.18-78.98.13-6.21.07-8.67-1.64-8.08-8.03.54-5.83-1.45-12.55.82-17.41,2.59-5.53,10.43-3.13,15.85-4.7,20.14-5.85,35.72-17.26,44.61-36.54,2.21-4.79,4.68-6.02,9.54-4.99,10.81,2.3,21.68,2.13,32.54.07,3.62-.69,6.72-1.3,8.8,3.46,10.37,23.73,29.58,35.85,54.48,39.35,6.32.89,7.54,3.23,7.5,8.98-.14,19.68.07,19.68-19.84,19.68-22.41,0-44.81,0-67.22,0Z" fill="#292D32"/>
      </g>
    </g>
  </g>
</svg>