<?xml version="1.0" encoding="UTF-8"?>
<svg xmlns="http://www.w3.org/2000/svg" version="1.1" viewBox="0 0 1000 1000">
  <!-- Generator: Adobe Illustrator 28.6.0, SVG Export Plug-In . SVG Version: 1.2.0 Build 709)  -->
  <g>
    <g id="_Слой_1" data-name="Слой_1">
      <g>
        <path d="M887.46,224.8v614.48c-9.92,33.49-31.68,41.85-62.02,41.78-218.39-.46-436.78-.23-655.17-.32-6.76,0-13.76-.1-20.22-1.77-24.25-6.27-37.48-25.22-37.48-52.62-.01-196.45,0-392.9,0-589.35,0-1.77-.03-3.53.04-5.3,1.07-27.88,21.39-48.27,49.3-49.19,10.08-.33,20.17-.08,30.26-.08,17.86,0,35.72,0,54.52,0,0,3.3,0,6.01,0,8.72,0,23.71-.5,47.43.25,71.11.29,9.36,1.62,19.43,5.5,27.78,10.41,22.38,29.34,31.92,53.79,31.84,39.51-.13,62.08-22.35,62.09-61.69,0-23.2,0-46.4,0-69.6v-7.76h269.5c0,3.09,0,5.8,0,8.51,0,23.96-.17,47.92.05,71.87.22,24.39,10.85,42.81,33.26,53.08,15.19,6.97,31.61,6.3,47.57,3.24,27.36-5.25,40.67-21.83,40.84-49.72.16-26.23.04-52.45.04-78.68,0-2.71,0-5.43,0-8.22,28.6,0,56.31-.27,84,.23,5.54.1,11.31,2.51,16.47,4.93,15.59,7.28,23.3,20.76,27.43,36.75ZM162.71,830.87h674.63v-451.63H162.71v451.63Z" fill="#292D32"/>
        <path d="M271.44,208.93c0-18.4-.07-36.8.02-55.2.1-20.88,12.52-33.19,33.53-33.31,4.28-.02,8.63-.19,12.82.5,15.13,2.49,25.42,14.25,25.61,30.93.43,37.81.47,75.62.01,113.43-.24,19.79-12.93,31.5-32.78,31.88-4.02.08-8.1.08-12.07-.47-16.16-2.22-26.83-13.98-27.06-30.29-.27-19.15-.06-38.31-.06-57.47h-.02Z" fill="#292D32"/>
        <path d="M734.69,208.11c.01,18.15.06,36.3,0,54.45-.08,21.58-12.06,33.47-33.78,33.61-3.53.02-7.07.05-10.58-.22-13.74-1.04-25.31-11.64-26.92-25.34-.88-7.47-.75-15.09-.77-22.64-.07-30.75.09-61.51-.09-92.26-.08-13.47,3.07-25.58,15.89-31.88,13.53-6.64,28.01-6.57,41.44.49,10.11,5.32,14.75,14.84,14.79,26.32.06,19.16.02,38.32.03,57.47Z" fill="#292D32"/>
        <path d="M279.52,783.11c-13.61,0-27.22-.15-40.83.06-6.92.11-10.14-2.51-10.07-9.76.21-23.44.22-46.88-.01-70.32-.07-7.03,2.58-10.18,9.7-10.14,27.47.12,54.95.11,82.42.01,7.04-.03,9.86,3.07,9.8,10.13-.22,23.19-.05,46.38-.1,69.57-.02,8.68-1.83,10.4-10.83,10.44-13.36.06-26.72.01-40.08.01Z" fill="#292D32"/>
        <path d="M424.84,783.11c-13.61,0-27.22-.15-40.83.06-6.91.11-10.12-2.46-10.05-9.75.23-23.69.22-47.39,0-71.08-.06-6.98,3.16-9.4,9.64-9.38,27.47.08,54.95.09,82.42,0,7.03-.02,9.88,3.05,9.82,10.12-.22,23.19-.05,46.38-.1,69.57-.02,8.66-1.86,10.41-10.83,10.45-13.36.06-26.72.01-40.08.01Z" fill="#292D32"/>
        <path d="M569.67,783.11c-13.61,0-27.22-.11-40.83.05-6.63.07-9.61-2.65-9.56-9.48.17-23.69.19-47.39-.01-71.08-.06-6.79,2.77-9.65,9.42-9.64,27.73.08,55.45.06,83.18.02,6.72-.01,9.33,3.19,9.28,9.84-.19,23.44-.2,46.88,0,70.32.06,7.1-2.84,10.11-9.88,10.02-13.86-.18-27.73-.05-41.59-.05Z" fill="#292D32"/>
        <path d="M715.06,783.11c-13.61,0-27.22-.11-40.83.05-6.57.07-9.67-2.48-9.62-9.39.19-23.69.21-47.39-.02-71.08-.06-6.75,2.61-9.73,9.3-9.72,27.73.07,55.45.06,83.18.01,6.66-.01,9.43,3.05,9.37,9.76-.19,23.44-.03,46.88-.09,70.32-.02,8.15-1.96,9.99-10.46,10.03-13.61.07-27.22.02-40.83.02Z" fill="#292D32"/>
        <path d="M570.17,530.53c-13.61,0-27.22-.19-40.82.08-6.96.14-10.15-2.38-10.09-9.66.21-23.68.17-47.37.02-71.06-.04-6.35,2.5-9.23,8.93-9.21,27.97.1,55.94.09,83.91,0,6.38-.02,9.03,2.83,9,9.2-.15,23.69-.18,47.37.02,71.06.06,7.3-3.22,9.78-10.15,9.65-13.6-.25-27.21-.07-40.82-.07Z" fill="#292D32"/>
        <path d="M715.02,530.53c-13.61,0-27.22-.15-40.82.07-6.67.11-9.64-2.47-9.59-9.34.18-23.94.15-47.88.02-71.82-.03-6.07,2.57-8.75,8.58-8.73,28.22.06,56.44.05,84.67.01,6.04,0,8.56,2.91,8.53,8.87-.1,23.94-.11,47.88,0,71.82.03,6.34-2.67,9.23-9.07,9.16-14.11-.14-28.22-.04-42.33-.04Z" fill="#292D32"/>
        <path d="M279.79,656.66c-13.86,0-27.72-.13-41.58.06-6.63.09-9.65-2.47-9.59-9.35.18-23.68.17-47.37.01-71.06-.04-6.69,2.63-9.57,9.44-9.53,27.72.16,55.44.13,83.15.02,6.31-.03,9.27,2.56,9.25,8.99-.1,23.94-.12,47.88.02,71.81.04,6.44-2.81,9.14-9.12,9.08-13.86-.12-27.72-.04-41.58-.03Z" fill="#292D32"/>
        <path d="M425.09,566.85c13.61,0,27.22.18,40.82-.07,7.11-.13,9.98,2.81,9.92,9.9-.19,23.43-.18,46.87,0,70.3.05,6.63-2.45,9.75-9.29,9.72-27.72-.12-55.44-.13-83.15.01-6.72.04-9.49-2.68-9.43-9.48.2-23.68.19-47.37.01-71.06-.05-6.81,2.82-9.5,9.54-9.39,13.86.23,27.72.07,41.58.07Z" fill="#292D32"/>
        <path d="M570.09,566.85c13.86,0,27.72.14,41.58-.06,6.79-.1,9.5,2.86,9.45,9.56-.16,23.69-.15,47.37,0,71.06.04,6.33-2.5,9.29-8.92,9.27-27.97-.08-55.94-.09-83.91.01-6.38.02-9.05-2.73-9.01-9.14.15-23.94.13-47.88.02-71.82-.03-6.46,2.91-9.02,9.22-8.95,13.86.17,27.72.05,41.58.05Z" fill="#292D32"/>
        <path d="M715.5,566.85c13.61,0,27.22.18,40.82-.07,6.94-.13,10.19,2.41,10.13,9.68-.2,23.69-.16,47.37-.02,71.06.04,6.4-2.68,9.19-9.03,9.17-27.97-.08-55.94-.07-83.91,0-5.84.01-8.88-2.23-8.85-8.47.12-24.19.12-48.38,0-72.57-.04-6.56,3.06-8.92,9.29-8.84,13.86.17,27.72.05,41.58.05Z" fill="#292D32"/>
      </g>
    </g>
  </g>
</svg>