<?xml version="1.0" encoding="UTF-8"?>
<svg xmlns="http://www.w3.org/2000/svg" version="1.1" viewBox="0 0 1000 1000">
  <!-- Generator: Adobe Illustrator 28.6.0, SVG Export Plug-In . SVG Version: 1.2.0 Build 709)  -->
  <g>
    <g id="_Слой_1" data-name="Слой_1">
      <path d="M923.11,517.25c-4.1,11.33-8.52,22.48-16.61,31.75-16.94,19.42-38.37,28.57-64.01,27.4-6.59-.3-8.16,1.81-8.14,8.2.21,81.05.28,162.11.08,243.16-.11,44.07-28.05,79.48-70.11,89.64-7.47,1.8-15.08,2.46-22.79,2.45-42.72-.06-85.43,0-128.15-.04-18.58-.01-28.46-9.77-28.47-28.3-.05-62.98-.7-125.97.3-188.94.44-27.47-18.29-48.18-47.62-47.07-22.97.87-46,.12-69,.19-28.64.08-45.3,16.79-45.32,45.53-.05,62.71,0,125.41-.02,188.12,0,21.4-9.08,30.46-30.45,30.47-41.62,0-83.24.05-124.87,0-55.16-.08-94.16-38.9-94.23-94.01-.11-79.14,0-158.27-.05-237.41,0-13.93,1.58-11.72-11.6-11.84-45.66-.4-80.26-35.97-78.42-81.03.73-17.81,7.15-33.57,18.88-47.06,2.69-3.1,5.61-6,8.51-8.91,107.07-107.08,214.2-214.1,321.17-321.29,15.47-15.5,30.48-31.33,52.22-38.09h39.44c20.77,6.67,35.58,21.4,50.51,36.37,105.28,105.57,210.69,211.01,316.3,316.25,14.15,14.1,26.86,28.7,32.47,48.31v36.15ZM222.96,692.29c0,44.09-.02,88.17,0,132.26.02,29.28,16.57,45.95,45.62,45.97,32.04.02,64.08-.25,96.11.19,7.56.1,9.47-1.97,9.44-9.46-.26-56.13-.64-112.28.19-168.4.65-43.73,35.81-81.55,79.47-85.25,33.54-2.84,67.28-1.87,100.93-.19,2.45.12,4.9.54,7.3,1.07,43.02,9.46,71.8,44.87,72.07,89.66.33,54.76.19,109.53-.05,164.3-.03,6.34,1.48,8.33,8.1,8.26,32.03-.36,64.07-.15,96.11-.16,30.83,0,46.95-16.18,46.95-47.14,0-89.27-.01-178.54.02-267.81,0-18.5,9.88-28.26,28.47-28.34,11.5-.05,23.01.17,34.5-.1,12.46-.29,22.45-8.24,25.97-20.19,4.07-13.78-2.57-23.48-11.8-32.7-111.22-111.06-222.34-222.23-333.48-333.37-17.83-17.83-31.77-17.74-49.81.29-98.95,98.94-197.89,197.88-296.83,296.83-13.75,13.75-27.63,27.37-41.19,41.3-8.66,8.9-10.88,19.63-5.87,31.04,4.83,11.01,13.77,16.71,25.92,16.84,10.68.11,21.36.03,32.04.05,20.28.04,29.8,9.43,29.82,29.51.03,45.18,0,90.36,0,135.55Z"  fill="#292D32"/>
    </g>
  </g>
</svg>