<?xml version="1.0" encoding="UTF-8"?>
<svg xmlns="http://www.w3.org/2000/svg" version="1.1" viewBox="0 0 1000 1000">
  <!-- Generator: Adobe Illustrator 28.6.0, SVG Export Plug-In . SVG Version: 1.2.0 Build 709)  -->
  <g>
    <g id="_Слой_1" data-name="Слой_1">
      <g>
        <path d="M940.33,90.21c-.76,64.65-17.66,126.03-38.81,186.5-2.81,8.05-5.58,16.14-9,23.94-3.45,7.87-2.32,14.26,3.07,20.97,28.57,35.58,51.4,74.53,64.13,118.52,30.75,106.3,22.01,208.1-40.37,301.57-35.33,52.94-85.94,88.82-143.57,114.53-84.35,37.63-171.21,68.45-260.01,93.88-10.76,3.08-21.01,2.91-31.65-.11-73.91-21.03-146.06-47.15-217.34-75.68-43.23-17.3-85.16-37.21-122.25-65.99-63.91-49.58-102.22-114.68-115.63-194.06-18.15-107.44,6.32-204.58,73.59-290.52,6.61-8.45,7.89-15.65,3.89-25.67-19.47-48.85-34.86-99.02-42.31-151.15-3.61-25.27-4.15-50.98-5.87-76.51-.25-3.73.25-7.65,1.15-11.3,2.17-8.8,10.36-13.49,18.96-10.67,4.45,1.46,8.67,3.8,12.76,6.15,67.19,38.51,134.39,77,201.42,115.77,6.12,3.54,10.84,3.83,17.38.86,110.14-50.13,222.85-53.79,337.45-17.48,13.8,4.37,27.03,10.64,40.25,16.65,7.22,3.28,13.2,3.43,20.38-.72,65.96-38.11,132.12-75.87,198.22-113.72,3.84-2.2,7.61-4.62,11.68-6.27,12.37-5.01,21.6.64,22.39,13.95.53,8.82.1,17.7.1,26.55ZM900.57,542.6c.79-56.22-15.06-105.23-49.75-147.5-48.79-59.45-124.08-79.49-193-51.53-41.67,16.91-73.14,46.83-96.74,83.89-19.96,31.35-35.81,65.31-53.77,97.96-1.49,2.71-5.19,5.82-7.84,5.8-2.67-.01-6.39-3.15-7.8-5.87-8.41-16.28-16.24-32.86-24.36-49.29-17.65-35.73-39.84-68.09-68.87-95.76-74.5-71.01-186.32-64.67-250.42,15.87-46.23,58.09-59.19,124.68-43.3,196.79,25.9,117.53,144.16,199.64,271.16,148.95,5.77-2.3,8.92-1.2,13.03,2.97,31.75,32.23,63.45,64.52,95.81,96.14,13.9,13.59,17,13.25,30.56-.23,30.73-30.57,61.25-61.36,91.35-92.55,6.61-6.85,11.73-8.61,21.12-4.97,47.26,18.3,94.85,19.36,142.42.36,92.51-36.96,134.09-132.95,130.43-201.01Z" fill="#292D32"/>
        <path d="M796.06,536.25c-1.29,37.3-15.94,66.93-45.88,88.16-44.8,31.77-102.23,20-135.81-26.61-38.36-53.25-19.25-148.31,63.1-165.83,44.48-9.47,94.59,20.08,110.59,66.61,4.14,12.05,5.41,25.08,7.99,37.66ZM645.78,516.83c-.03,15.89,11.79,28.24,26.87,28.08,13.86-.15,25.26-12.47,25.57-27.63.32-15.81-11.61-28.49-26.72-28.39-14.9.1-25.69,11.81-25.72,27.94Z"/>
        <path d="M204.26,537.01c.74-56.96,43-104.03,96.03-106.35,49.79-2.18,96.09,37.21,102.45,86.83,3.05,23.78,1.07,46.71-9.87,68.37-19.52,38.68-59.51,60.74-100.49,55.55-41.55-5.26-76.34-38.22-85.07-80.94-1.57-7.7-2.07-15.63-3.06-23.45ZM301.62,516.45c-.05,14.8,12.37,28.59,25.84,28.68,15.13.1,27.16-12.28,27.21-28,.05-15.99-11.56-28.43-26.66-28.55-14.22-.12-26.34,12.68-26.39,27.87Z" fill="#292D32"/>
        <path d="M499.84,785.74c-3.63-3.83-7.03-6.25-8.87-9.54-14.91-26.69-30.61-53.02-43.94-80.5-13.11-27.01-13.06-17.95,4.92-41.65,13.92-18.35,26.8-37.48,40.04-56.33,6.73-9.58,8.31-9.57,15.32.06,17.08,23.47,34.38,46.77,51.21,70.42,1.91,2.69,3.01,8.01,1.66,10.66-16.37,31.98-33.17,63.75-50.17,95.4-2.11,3.93-6.02,6.89-10.16,11.48Z" fill="#292D32"/>
      </g>
    </g>
  </g>
</svg>