<?xml version="1.0" encoding="UTF-8"?>
<svg xmlns="http://www.w3.org/2000/svg" version="1.1" viewBox="0 0 1000 1000">
  <!-- Generator: Adobe Illustrator 28.6.0, SVG Export Plug-In . SVG Version: 1.2.0 Build 709)  -->
  <g>
    <g id="_Слой_1" data-name="Слой_1">
      <g>
        <path d="M305.21,747.23c0-43.2-.09-86.4.11-129.6.03-5.53-1.71-9.23-5.65-13.15-81.46-80.93-111.21-178.11-81.46-288.84,29.77-110.79,104.1-181.57,215.48-208.72,165.67-40.39,331.36,71.97,355.83,240.03,14.57,100.05-15.81,186.06-88.02,256.98-4.42,4.35-6.24,8.46-6.23,14.61.19,86.12.16,172.24.1,258.36-.01,16.7-11.29,26.82-26.22,23.93-4.57-.88-8.26-3.54-12.07-5.91-50.06-31.15-100.15-62.24-150.07-93.62-5.06-3.18-8.54-2.95-13.44.12-49.95,31.33-100.04,62.43-150.13,93.53-3.57,2.21-7.29,4.61-11.27,5.63-14.48,3.72-26.84-6.4-26.89-22.04-.14-43.77-.05-87.53-.05-131.3ZM500.75,142.15c-137.74-.12-249.63,111.46-249.75,249.07-.12,137.56,110.93,249.57,247.92,250.06,138.3.5,250.59-111.48,250.68-250,.09-137.07-111.72-249.01-248.85-249.13ZM348.35,839.31c4.46-.47,6.72-2.74,9.27-4.33,41.89-26.15,83.92-52.07,125.5-78.71,12.06-7.73,22.25-7.8,34.29-.1,41.84,26.74,84.09,52.84,126.23,79.12,2.44,1.52,4.62,4,8.61,3.65v-8.7c0-59.31,0-118.61,0-177.92,0-10.12.07-9.95-9.02-5.15-95.59,50.42-191.14,50.25-286.57-.44-8.35-4.44-8.3-4.61-8.3,4.68-.01,60.15,0,120.31,0,180.46,0,2.23,0,4.45,0,7.43Z"/>
        <path d="M374.69,521.81c3.45-20.3,7.26-42.82,11.12-65.32,1.9-11.12,3.76-22.24,5.9-33.31.95-4.92-.36-8.36-4.04-11.89-22.8-21.9-45.25-44.16-68.07-66.04-7.32-7.03-11.47-14.83-8.42-24.89,3.2-10.57,11.63-14.4,21.85-15.85,31.27-4.42,62.48-9.25,93.79-13.37,5.7-.75,8.23-3.27,10.49-7.92,13.67-28.14,27.66-56.13,41.28-84.3,4.5-9.31,10.58-16.27,21.54-16.34,10.95-.07,17.19,6.72,21.71,16.07,13.76,28.41,27.88,56.65,41.66,85.05,2.16,4.45,4.68,6.67,9.95,7.38,31.3,4.19,62.52,8.98,93.79,13.39,10.18,1.43,18.72,5.07,22.05,15.62,3.3,10.43-1.18,18.36-8.71,25.57-22.62,21.67-44.85,43.76-67.48,65.43-3.97,3.8-5.09,7.45-4.16,12.67,5.49,30.81,10.69,61.67,16.14,92.48,1.78,10.05,1.24,19.34-7.77,25.91-8.87,6.47-17.72,4.88-26.95-.08-27.57-14.8-55.41-29.09-82.98-43.89-5.04-2.71-8.92-2.78-14.02-.04-28.57,15.32-57.24,30.46-86.08,45.25-16.25,8.34-32.92-1.78-32.62-21.57ZM425.12,484.93c21.44-11.41,41.43-21.75,61.1-32.64,9.59-5.31,18.47-5.39,28.01-.13,17.54,9.66,35.27,18.95,52.98,28.31,2.27,1.2,4.37,3.31,8.03,2.71-3.77-22.91-7.22-45.46-11.29-67.89-1.74-9.58.71-17.12,7.56-23.72,11.58-11.17,23.03-22.49,34.52-33.76,4.96-4.86,9.89-9.74,16.04-15.8-24.28-3.6-46.72-7.25-69.25-10.12-10.71-1.36-17.35-6.71-21.86-16.17-8.86-18.58-18.12-36.96-27.31-55.38-.9-1.79-.98-4.58-4.4-4.72-9.96,20.43-20.02,40.92-29.93,61.48-4.14,8.58-10.51,13.5-20.17,14.61-11.76,1.35-23.47,3.27-35.18,5.03-11.17,1.68-22.33,3.46-33.59,5.2,12.89,13.25,24.17,26.87,37.5,38.04,16.51,13.83,24.14,29.13,16.47,50.25-.76,2.09-.84,4.42-1.21,6.65-2.59,15.47-5.17,30.94-8.02,48.07Z"/>
      </g>
    </g>
  </g>
</svg>