<svg width="29" height="30" viewBox="0 0 29 30" fill="none" xmlns="http://www.w3.org/2000/svg">
<path d="M21.9191 26.241C20.8558 26.5551 19.5991 26.7001 18.125 26.7001H10.875C9.40081 26.7001 8.14414 26.5551 7.08081 26.241C7.34664 23.0993 10.5729 20.6222 14.5 20.6222C18.4271 20.6222 21.6533 23.0993 21.9191 26.241Z" stroke="#292D32" stroke-width="1.5" stroke-linecap="round" stroke-linejoin="round"/>
<path d="M18.125 2.53345H10.875C4.83335 2.53345 2.41669 4.95011 2.41669 10.9918V18.2418C2.41669 22.8093 3.79419 25.3105 7.08085 26.2409C7.34669 23.0993 10.5729 20.6222 14.5 20.6222C18.4271 20.6222 21.6534 23.0993 21.9192 26.2409C25.2059 25.3105 26.5834 22.8093 26.5834 18.2418V10.9918C26.5834 4.95011 24.1667 2.53345 18.125 2.53345ZM14.5 17.2388C12.1075 17.2388 10.1742 15.2935 10.1742 12.901C10.1742 10.5085 12.1075 8.57511 14.5 8.57511C16.8925 8.57511 18.8259 10.5085 18.8259 12.901C18.8259 15.2935 16.8925 17.2388 14.5 17.2388Z" stroke="#292D32" stroke-width="1.5" stroke-linecap="round" stroke-linejoin="round"/>
<path d="M18.8259 12.901C18.8259 15.2935 16.8925 17.2389 14.5 17.2389C12.1075 17.2389 10.1742 15.2935 10.1742 12.901C10.1742 10.5085 12.1075 8.5752 14.5 8.5752C16.8925 8.5752 18.8259 10.5085 18.8259 12.901Z" stroke="#292D32" stroke-width="1.5" stroke-linecap="round" stroke-linejoin="round"/>
</svg>
