<?xml version="1.0" encoding="UTF-8"?>
<svg xmlns="http://www.w3.org/2000/svg" version="1.1" viewBox="0 0 1000 1000">
  <!-- Generator: Adobe Illustrator 28.6.0, SVG Export Plug-In . SVG Version: 1.2.0 Build 709)  -->
  <g>
    <g id="_Слой_1" data-name="Слой_1">
      <g>
        <path d="M239.03,500.56c0-22.04.15-41.48-.15-60.9-.05-3.4-1.53-7.03-3.17-10.13-26.7-50.55-26.66-100.98.06-151.54,2.01-3.8,3.11-8.54,3.13-12.86.21-54.37.11-108.75.15-163.12.02-25.38,15.7-36.81,40.19-29.37,53.66,16.31,107.3,32.71,161.01,48.84,4.14,1.24,9.02,1.71,13.21.85,32.05-6.52,63.95-5.27,95.94.48,5.09.92,10.9.7,15.84-.79,51.96-15.66,103.8-31.7,155.69-47.59,23.86-7.31,39.76,4.25,39.78,29,.05,52.86-.14,105.71.23,158.56.04,6.3,1.88,13.12,4.71,18.79,24.64,49.46,24.55,98.51-.95,147.61-2.26,4.35-3.67,9.63-3.79,14.52-.44,18.2-.18,36.43-.18,56.73,5.03-3.83,8.8-6.89,12.76-9.7,20.11-14.28,42.14-5.18,45.09,19.37,6,49.92,7.65,100.01.03,149.88-20.33,133.05-129.7,243.65-262,265.66-149.92,24.94-290.62-50.34-352.85-188.7-23.22-51.63-29.22-106.15-27.02-161.95.79-20,2.76-39.97,4.56-59.92.43-4.75,1.68-9.65,3.65-13.99,8.4-18.47,25.58-21.98,42.92-9.02,3.3,2.47,6.37,5.26,11.18,9.27ZM460.97,579.77c-29.53,24.76-58.34,48.99-87.24,73.13-15.97,13.35-27.71,13.06-43.61-.76-14.22-12.35-28.44-24.69-42.68-37.01-18.07-15.64-36.17-31.27-54.69-47.28-7.38,86.07,16.73,190.13,112.1,257.29,94.28,66.39,213.59,67.6,310.96-.39,43.52-30.38,76.55-70.02,94.88-120.47,16.17-44.52,21.04-90.65,17.71-139.58-4.94,3.97-8.45,6.76-11.93,9.59-32.73,26.66-65.4,53.39-98.2,79.96-14.33,11.61-27.18,11.13-40.8-1.14-13.76-12.4-27.45-24.89-41.2-37.31-12.98-11.72-25.99-23.39-38.81-34.92-13.15,9.35-19.54,27.41-38.43,26.24-17.72-1.09-26.03-16.39-38.06-27.36ZM469.6,353.55c-.34-55.15-45.29-99.82-100.01-99.39-54.77.43-99.62,45.88-99.12,100.45.5,54.54,45.27,98.87,99.73,98.75,55.14-.12,99.74-44.91,99.4-99.81ZM629.47,453.36c54.47.19,99.23-44.07,99.8-98.68.57-54.57-44.25-100.06-99.05-100.53-54.69-.47-99.7,44.19-100.1,99.32-.4,54.85,44.21,99.69,99.35,99.88ZM599.17,202.45c-59.14-41.53-148.41-36.97-197.21.3,41.34,9.46,73.64,31.97,97.95,67.33,24.59-35.76,57.08-58.02,99.27-67.64ZM352.65,599.24c23.75-19.95,47.08-39.54,70.75-59.41-9.03-9.5-17.62-18.03-25.58-27.13-4.05-4.63-8.32-5.92-14.26-5.4-29.06,2.52-56.6-3.35-82.86-15.8-2-.95-4.15-1.56-6.98-2.61,0,19.27-.09,37.44.13,55.6.03,2.09,1.24,4.78,2.81,6.16,18.4,16.17,36.97,32.14,55.99,48.58ZM639.36,599.16c21.6-17.58,42.77-34.77,63.85-52.07,1.27-1.04,2.62-2.91,2.63-4.41.18-17.71.12-35.43.12-52.22-15.93,5.23-30.74,11.98-46.26,14.67-15.9,2.76-32.5,1.48-48.78,2.16-1.91.08-4.29.81-5.57,2.11-10.13,10.3-20.05,20.81-30.35,31.59,21.79,19.7,42.9,38.78,64.36,58.18ZM499.45,540.47c17.28-17.99,34.22-35.61,49.83-51.85-17.28-16.6-33.92-32.59-49.38-47.44-15.55,14.94-32.21,30.94-49.53,47.58,15.26,16.08,31.88,33.59,49.09,51.72ZM294.07,221.59c8.71-6.71,16.11-11.57,22.49-17.52,8.87-8.25,16.63-17.69,25.52-25.91,7.89-7.29,16.68-13.62,26.23-21.31-25.27-7.66-49.39-14.98-74.24-22.52v87.25ZM636.11,157.64c15.79,15.81,30.88,31.45,46.61,46.4,6.43,6.11,14.27,10.74,22.74,16.99v-84.56c-23.87,7.29-46.94,14.33-69.35,21.18Z" fill="#292D32"/>
        <path d="M498.6,835.06c-8.17-.49-16.35-.88-24.52-1.5-17.44-1.32-28.43-13.41-27.32-29.86,1.02-15.09,13.64-24.63,30.3-24.97,21.41-.43,43.35.35,64.07-4.05,31.13-6.61,59.1-21.49,82.29-44.12,10.93-10.66,26.39-10.79,37.57-.42,10.85,10.05,12,27.68,1.22,38.37-8.78,8.7-18.56,16.6-28.75,23.62-40.52,27.96-85.41,42.64-134.87,42.94Z" fill="#292D32"/>
        <path d="M371.72,736.96c.35.02,1.71-.24,2.75.23,18.76,8.51,36.76,18.62,49.73,34.83,7.17,8.96,4.15,21.97-4.07,30.83-8.24,8.87-20.32,12.11-31.51,5.81-13.11-7.38-25.61-16.12-37.37-25.53-8.76-7-10.24-19.83-5.73-30.09,4.33-9.85,14.36-16.23,26.19-16.08Z" fill="#292D32"/>
        <path d="M370.03,304.87c27.05-.05,49.31,22.16,49.24,49.1-.07,26.86-22.7,49.28-49.49,49.04-26.63-.24-48.48-22.21-48.57-48.84-.1-27.32,21.63-49.26,48.83-49.3Z" fill="#292D32"/>
        <path d="M629.16,304.87c27.31-.13,49.27,21.57,49.37,48.78.1,27.07-22.04,49.37-48.99,49.36-26.83-.01-49.31-22.64-49.09-49.43.22-26.7,22.11-48.59,48.7-48.71Z" fill="#292D32"/>
      </g>
    </g>
  </g>
</svg>