<svg width="26" height="26" viewBox="0 0 26 26" fill="none" xmlns="http://www.w3.org/2000/svg">
<path opacity="0.4" d="M18.6069 0.545898H7.94027C3.30704 0.545898 0.544922 3.30802 0.544922 7.94125V18.5951C0.544922 23.2411 3.30704 26.0032 7.94027 26.0032H18.5942C23.2274 26.0032 25.9895 23.2411 25.9895 18.6079V7.94125C26.0022 3.30802 23.2401 0.545898 18.6069 0.545898Z" fill="#EBEBEB"/>
<path d="M13.2748 14.5477C12.562 14.5477 12.002 13.9749 12.002 13.2748C12.002 12.5747 12.5747 12.002 13.2748 12.002C13.9749 12.002 14.5477 12.5747 14.5477 13.2748C14.5477 13.9749 13.9876 14.5477 13.2748 14.5477Z" fill="#292D32"/>
<path d="M18.3666 14.5477C17.6538 14.5477 17.0938 13.9749 17.0938 13.2748C17.0938 12.5747 17.6665 12.002 18.3666 12.002C19.0667 12.002 19.6395 12.5747 19.6395 13.2748C19.6395 13.9749 19.0794 14.5477 18.3666 14.5477Z" fill="#292D32"/>
<path d="M8.18302 14.5477C7.47022 14.5477 6.91016 13.9749 6.91016 13.2748C6.91016 12.5747 7.48295 12.002 8.18302 12.002C8.8831 12.002 9.45589 12.5747 9.45589 13.2748C9.45589 13.9749 8.89583 14.5477 8.18302 14.5477Z" fill="#292D32"/>
</svg>
