<svg width="27" height="26" viewBox="0 0 27 26" fill="none" xmlns="http://www.w3.org/2000/svg">
<path d="M11.9871 1.45749C11.9061 1.46925 11.8241 1.51097 11.7544 1.55689C11.6561 1.62157 11.6606 1.62857 11.7155 1.73497C11.8149 1.92789 11.9764 1.98165 12.1691 1.88281C12.2354 1.84865 12.2979 1.80665 12.369 1.76409C12.3401 1.71649 12.3205 1.67673 12.2942 1.64173C12.2167 1.53925 12.1299 1.43677 11.9871 1.45721V1.45749Z" fill="#292D32"/>
<path d="M13.487 1.55314C13.2882 1.41734 13.123 1.44758 12.9839 1.64218C12.9099 1.7455 12.9099 1.74662 12.999 1.8365C13.1415 1.98042 13.2972 1.9933 13.4478 1.86534C13.5128 1.8099 13.5668 1.74158 13.6321 1.67214C13.5786 1.6279 13.5357 1.58618 13.487 1.55314Z" fill="#292D32"/>
<path d="M12.6692 1.9C12.5888 1.89664 12.523 1.98064 12.5225 2.08732C12.5225 2.0918 12.523 2.09628 12.523 2.10048C12.5216 2.26064 12.574 2.40344 12.6678 2.54484C12.7641 2.40456 12.7991 2.25476 12.8058 2.09572C12.8103 1.9896 12.7507 1.90364 12.6692 1.9Z" fill="#292D32"/>
<path d="M18.4011 3.64792C18.3202 3.65968 18.2382 3.7014 18.1685 3.74732C18.0702 3.812 18.0747 3.819 18.1295 3.9254C18.2289 4.11832 18.3905 4.17208 18.5831 4.07324C18.6495 4.03908 18.7119 3.99708 18.7831 3.95452C18.7542 3.90692 18.7346 3.86716 18.7083 3.83216C18.6307 3.72968 18.5439 3.6272 18.4011 3.64764V3.64792Z" fill="#292D32"/>
<path d="M19.9011 3.74406C19.7023 3.60826 19.5371 3.6385 19.3979 3.8331C19.324 3.93642 19.324 3.93754 19.413 4.02742C19.5556 4.17134 19.7112 4.18422 19.8619 4.05626C19.9268 4.00082 19.9809 3.9325 20.0461 3.86306C19.9926 3.81882 19.9498 3.7771 19.9011 3.74406Z" fill="#292D32"/>
<path d="M19.0832 4.09043C19.0029 4.08707 18.9371 4.17107 18.9365 4.27775C18.9365 4.28223 18.9371 4.28671 18.9371 4.29091C18.9357 4.45107 18.988 4.59387 19.0821 4.73527C19.1784 4.59499 19.2134 4.44519 19.2202 4.28615C19.2246 4.18003 19.165 4.09407 19.0835 4.09043H19.0832Z" fill="#292D32"/>
<path d="M20.3357 11.5478C20.2548 11.5596 20.1727 11.6013 20.103 11.6472C20.0047 11.7119 20.0092 11.7189 20.0641 11.8253C20.1635 12.0182 20.3251 12.072 20.5177 11.9731C20.5841 11.939 20.6465 11.897 20.7176 11.8544C20.6888 11.8068 20.6692 11.7671 20.6429 11.7321C20.5653 11.6296 20.4785 11.5271 20.3357 11.5475V11.5478Z" fill="#292D32"/>
<path d="M21.8357 11.644C21.6369 11.5082 21.4716 11.5384 21.3325 11.733C21.2586 11.8363 21.2586 11.8374 21.3476 11.9273C21.4901 12.0712 21.6458 12.0841 21.7965 11.9562C21.8614 11.9007 21.9155 11.8324 21.9807 11.763C21.9272 11.7187 21.8844 11.677 21.8357 11.644Z" fill="#292D32"/>
<path d="M21.0178 11.9908C20.9375 11.9875 20.8717 12.0715 20.8711 12.1781C20.8711 12.1826 20.8717 12.1871 20.8717 12.1913C20.8703 12.3515 20.9226 12.4943 21.0167 12.6357C21.113 12.4954 21.148 12.3456 21.1547 12.1865C21.1592 12.0804 21.0996 11.9945 21.0181 11.9908H21.0178Z" fill="#292D32"/>
<path d="M7.82784 3.92512C7.88272 3.81872 7.8872 3.81172 7.78892 3.74704C7.7192 3.70112 7.63744 3.6594 7.55624 3.64764C7.41344 3.6272 7.32664 3.72968 7.24908 3.83216C7.22276 3.86688 7.20316 3.90664 7.17432 3.95452C7.24572 3.99708 7.30788 4.03908 7.37424 4.07324C7.56688 4.17208 7.72844 4.11832 7.82784 3.9254V3.92512Z" fill="#292D32"/>
<path d="M6.09488 4.05626C6.24552 4.18422 6.4012 4.17134 6.54372 4.02742C6.63248 3.93754 6.63276 3.93642 6.55884 3.8331C6.41968 3.6385 6.25476 3.60826 6.05568 3.74406C6.00696 3.77738 5.96412 3.81882 5.91064 3.86306C5.97616 3.9325 6.02992 4.00082 6.09488 4.05626Z" fill="#292D32"/>
<path d="M6.8753 4.73527C6.96938 4.59387 7.02146 4.45107 7.02034 4.29091C7.02034 4.28643 7.0209 4.28195 7.0209 4.27775C7.02034 4.17107 6.95454 4.08707 6.87418 4.09043C6.7927 4.09407 6.73306 4.18003 6.73754 4.28615C6.74426 4.44519 6.77926 4.59499 6.87558 4.73527H6.8753Z" fill="#292D32"/>
<path d="M5.89278 11.8255C5.94766 11.7191 5.95214 11.7121 5.85386 11.6474C5.78414 11.6015 5.70238 11.5595 5.62118 11.548C5.47838 11.5276 5.39158 11.6301 5.31402 11.7326C5.2877 11.7673 5.2681 11.807 5.23926 11.8549C5.31066 11.8975 5.37282 11.9395 5.43918 11.9736C5.63182 12.0725 5.79338 12.0187 5.89278 11.8258V11.8255Z" fill="#292D32"/>
<path d="M4.12111 11.644C4.07239 11.6773 4.02955 11.7187 3.97607 11.763C4.04159 11.8324 4.09535 11.9007 4.16031 11.9562C4.31095 12.0841 4.46663 12.0712 4.60915 11.9273C4.69791 11.8374 4.69819 11.8363 4.62427 11.733C4.48511 11.5384 4.32019 11.5082 4.12111 11.644Z" fill="#292D32"/>
<path d="M5.08577 12.1913C5.08577 12.1868 5.08633 12.1823 5.08633 12.1781C5.08577 12.0715 5.01997 11.9875 4.93961 11.9908C4.85813 11.9945 4.79849 12.0804 4.80297 12.1865C4.80969 12.3456 4.84469 12.4954 4.94101 12.6357C5.03509 12.4943 5.08717 12.3515 5.08605 12.1913H5.08577Z" fill="#292D32"/>
<path d="M23.0432 16.4884C23.1316 16.1543 23.2072 15.8175 23.2478 15.4731C23.3041 14.9943 23.3055 14.5169 23.2078 14.0431C23.091 13.4775 22.8444 12.976 22.4501 12.5507C22.4162 12.5143 22.4059 12.483 22.4221 12.4337C22.4462 12.3603 22.463 12.2842 22.477 12.208C22.5624 11.7393 22.4907 11.3053 22.1981 10.9161C22.1567 10.8609 22.1346 10.7828 22.1267 10.7125C22.1052 10.5213 22.1138 10.4882 22.2947 10.4227C22.2964 10.4222 22.2964 10.4168 22.2981 10.4098C22.2606 10.4059 22.2242 10.4023 22.1827 10.3978C22.2499 10.2631 22.3642 10.1816 22.4706 10.0926H22.444C22.3594 10.1234 22.2729 10.1497 22.1908 10.1856C22.0175 10.2617 21.8926 10.3897 21.8112 10.5703C21.551 10.4152 21.2733 10.3272 20.9734 10.3191C20.6735 10.3113 20.3932 10.3802 20.1326 10.5462C20.0001 10.2855 19.7795 10.1522 19.5006 10.1038C19.5964 10.1937 19.7081 10.269 19.7674 10.3972C19.7268 10.4026 19.6899 10.4073 19.6386 10.414C19.6764 10.4289 19.6988 10.4378 19.7215 10.4462C19.7994 10.4751 19.8349 10.5302 19.8346 10.614C19.8344 10.7299 19.8044 10.836 19.7515 10.9385C19.6997 11.0384 19.6448 11.1381 19.607 11.2437C19.4807 11.597 19.4832 11.9605 19.5342 12.3273C19.546 12.4113 19.56 12.5012 19.5429 12.5821C19.4432 13.06 19.3757 13.5388 19.4474 14.0274C19.5143 14.4844 19.7173 14.8672 20.0718 15.1668C20.2868 15.3488 20.5288 15.4868 20.783 15.605C20.8748 15.6475 20.9664 15.6906 21.0571 15.7329C21.0182 15.8984 20.9406 15.9502 20.7819 15.9222C20.6108 15.892 20.4467 15.962 20.3594 16.0969C20.3484 16.114 20.3389 16.1356 20.3311 16.1591C19.9956 16.1294 19.6899 16.1073 19.4715 16.1006C18.335 16.0658 16.5152 16.1767 14.8809 16.4934C14.8557 16.2982 14.8198 16.119 14.8114 15.9387C14.7602 14.8448 14.709 13.7505 14.6751 12.656C14.6703 12.5048 14.7252 12.3273 14.8106 12.201C15.7528 10.81 17.0876 9.905 18.5774 9.19968C18.9146 9.04008 19.4984 8.7458 19.8912 8.55988C19.929 8.59796 19.9657 8.63744 20.0035 8.67524C20.032 8.7038 20.055 8.73796 20.0838 8.7738C20.1323 8.64864 20.1415 8.54252 20.1152 8.45712C20.1258 8.45236 20.1373 8.44732 20.1471 8.44312C20.1645 8.43556 20.1827 8.428 20.2012 8.42016C20.2905 8.49744 20.3708 8.5848 20.438 8.68756C20.512 8.8004 20.6094 8.8914 20.7253 8.95944C20.8813 9.05128 20.9902 9.00536 21.0428 8.83092C21.0459 8.82028 21.0493 8.80964 21.0521 8.799C21.1232 8.54392 21.1893 8.288 21.2408 8.029C22.293 7.65632 23.5511 7.25144 23.5511 7.25144C23.5511 7.25144 22.372 7.43036 21.3055 7.637C21.3083 7.61544 21.3116 7.59388 21.3142 7.57204C21.3704 7.09324 21.3718 6.61584 21.2741 6.14208C21.1574 5.57648 20.9107 5.075 20.5164 4.64968C20.4826 4.61328 20.4722 4.58192 20.4884 4.53264C20.5125 4.45928 20.5293 4.38312 20.5433 4.30696C20.6287 3.83824 20.557 3.40424 20.2644 3.01504C20.223 2.95988 20.2009 2.88176 20.193 2.81148C20.1715 2.62024 20.1802 2.5872 20.361 2.52168C20.3627 2.52112 20.3627 2.5158 20.3644 2.5088C20.3269 2.50488 20.2905 2.50124 20.249 2.49676C20.3162 2.36208 20.4305 2.2806 20.5369 2.19156H20.5103C20.4257 2.22236 20.3392 2.24868 20.2572 2.28452C20.0838 2.36068 19.959 2.48864 19.8775 2.66924C19.6174 2.51412 19.3396 2.4262 19.0397 2.41808C18.7398 2.41024 18.4596 2.47912 18.1989 2.64516C18.0664 2.38448 17.8458 2.2512 17.5669 2.20276C17.6627 2.29264 17.7744 2.36796 17.8338 2.4962C17.7932 2.50152 17.7562 2.50628 17.705 2.513C17.7428 2.52784 17.7652 2.5368 17.7878 2.5452C17.8657 2.57404 17.9012 2.6292 17.901 2.71292C17.9007 2.82884 17.8707 2.93496 17.8178 3.03744C17.766 3.1374 17.7111 3.23708 17.6733 3.34264C17.547 3.696 17.5496 4.05944 17.6005 4.42624C17.6123 4.51024 17.6263 4.60012 17.6092 4.68104C17.5095 5.159 17.442 5.6378 17.5137 6.1264C17.5806 6.58336 17.7836 6.96612 18.1381 7.26572C18.3532 7.44772 18.5951 7.58576 18.8493 7.70392C18.9412 7.74648 19.0327 7.7896 19.1234 7.83188C19.0845 7.99736 19.007 8.04916 18.8482 8.02116C18.6771 7.99092 18.513 8.06092 18.4257 8.19588C18.3887 8.253 18.3666 8.35492 18.3786 8.44116C17.1354 8.86284 15.4876 9.52056 14.4553 10.3757V6.8138C14.5359 6.81268 14.5947 6.75416 14.6294 6.63936C14.6325 6.62872 14.6359 6.61808 14.6387 6.60744C14.7512 6.20368 14.8515 5.79796 14.9008 5.38048C14.957 4.90168 14.9584 4.42428 14.8607 3.95052C14.744 3.38492 14.4973 2.88344 14.103 2.45812C14.0692 2.42172 14.0588 2.39036 14.075 2.34108C14.0991 2.26772 14.1162 2.19156 14.1299 2.1154C14.2153 1.64668 14.1436 1.21268 13.851 0.82348C13.8096 0.76832 13.7875 0.6902 13.7796 0.61992C13.7581 0.42868 13.7668 0.39564 13.9476 0.33012C13.9493 0.32956 13.9493 0.32424 13.951 0.31724C13.9135 0.31332 13.8771 0.30968 13.8356 0.3052C13.9028 0.17052 14.0171 0.08904 14.1235 0H14.0969C14.0123 0.0308 13.9258 0.05712 13.8438 0.09296C13.6704 0.16912 13.5456 0.29708 13.4641 0.47768C13.204 0.32256 12.9262 0.23464 12.6263 0.22652C12.3264 0.21868 12.0462 0.28756 11.7855 0.4536C11.653 0.19292 11.4324 0.0596399 11.1535 0.0111999C11.2493 0.10108 11.361 0.1764 11.4204 0.30464C11.3798 0.30996 11.3428 0.31472 11.2916 0.32144C11.3294 0.33628 11.3518 0.34524 11.3744 0.35364C11.4523 0.38248 11.4878 0.43764 11.4876 0.52136C11.4873 0.63728 11.4573 0.7434 11.4044 0.84588C11.3526 0.94584 11.2977 1.04552 11.2599 1.15108C11.1336 1.50444 11.1362 1.86788 11.1871 2.23468C11.1989 2.31868 11.2129 2.40856 11.1958 2.48948C11.0961 2.96744 11.0286 3.44624 11.1003 3.93484C11.1672 4.3918 11.3702 4.77456 11.7247 5.07416C11.9398 5.25616 12.1817 5.3942 12.4359 5.51236C12.5278 5.55492 12.6193 5.59804 12.71 5.64032C12.6711 5.8058 12.5936 5.8576 12.4348 5.8296C12.2637 5.79936 12.0996 5.86936 12.0123 6.00432C11.9812 6.05248 11.961 6.132 11.9622 6.2076L11.555 6.20704V10.3748C10.5098 9.50908 8.83316 8.8452 7.58492 8.42436C7.5922 8.34176 7.57036 8.24852 7.53564 8.19504C7.44828 8.06008 7.2842 7.99008 7.11312 8.02032C6.95436 8.04832 6.8768 7.99652 6.83788 7.83104C6.92832 7.78876 7.02016 7.74564 7.112 7.70308C7.36624 7.58492 7.60816 7.44688 7.8232 7.26488C8.17768 6.965 8.38068 6.58252 8.4476 6.12556C8.51928 5.63696 8.45152 5.15788 8.35212 4.6802C8.33532 4.59928 8.34932 4.5094 8.3608 4.4254C8.41176 4.0586 8.41428 3.69516 8.288 3.3418C8.2502 3.23624 8.19532 3.13656 8.14352 3.0366C8.0906 2.93412 8.06064 2.82772 8.06036 2.71208C8.06008 2.62864 8.09564 2.5732 8.17348 2.54436C8.19616 2.53596 8.21856 2.527 8.25636 2.51216C8.20484 2.50544 8.16816 2.50068 8.12756 2.49536C8.18692 2.36712 8.29864 2.2918 8.3944 2.20192C8.11552 2.25036 7.89488 2.38392 7.76244 2.64432C7.50148 2.47856 7.22148 2.4094 6.9216 2.41724C6.62144 2.42508 6.34396 2.513 6.08384 2.6684C6.00236 2.48752 5.87776 2.35956 5.70416 2.28368C5.62212 2.24756 5.5356 2.22124 5.45104 2.19072H5.42444C5.53056 2.27976 5.64508 2.36152 5.71228 2.49592C5.67084 2.50012 5.63472 2.50404 5.59692 2.50796C5.5986 2.51496 5.5986 2.52028 5.60028 2.52084C5.78116 2.58636 5.78984 2.6194 5.76828 2.81064C5.76044 2.88064 5.73832 2.95904 5.69688 3.0142C5.40428 3.4034 5.3326 3.8374 5.418 4.30612C5.43172 4.38228 5.4488 4.45844 5.47288 4.5318C5.48912 4.58108 5.47876 4.61244 5.44488 4.64884C5.05064 5.07416 4.80396 5.57564 4.6872 6.14124C4.5892 6.615 4.5906 7.09212 4.64716 7.5712C4.6494 7.58968 4.6522 7.60788 4.65444 7.62636C3.60164 7.42392 2.45952 7.2506 2.45952 7.2506C2.45952 7.2506 3.67584 7.64204 4.71688 8.0094C4.76896 8.27484 4.83644 8.53692 4.90924 8.79816C4.91232 8.8088 4.9154 8.81944 4.91848 8.83008C4.97112 9.00452 5.08004 9.05044 5.236 8.9586C5.35192 8.89028 5.44908 8.79956 5.52328 8.68672C5.5944 8.57808 5.68036 8.48624 5.77612 8.40532C5.80272 8.41624 5.8282 8.42688 5.85256 8.43752C5.81868 8.52572 5.82568 8.63856 5.87776 8.77296C5.90632 8.7374 5.92928 8.70324 5.95812 8.6744C6.00124 8.63128 6.04296 8.5862 6.08636 8.54336C6.47864 8.72788 7.08652 9.03476 7.43316 9.19884C8.92332 9.90388 10.2581 10.8091 11.2 12.2002C11.2854 12.3262 11.3403 12.5037 11.3355 12.6552C11.3014 13.7497 11.2504 14.8439 11.1992 15.9379C11.1908 16.1185 11.1549 16.2977 11.1297 16.4926C9.49536 16.1759 7.67564 16.065 6.53912 16.0997C6.31036 16.1067 5.98556 16.1308 5.63164 16.1624C5.62352 16.1372 5.61344 16.114 5.60196 16.0958C5.5146 15.9608 5.35052 15.8908 5.17944 15.9211C5.02068 15.9491 4.94312 15.8973 4.9042 15.7318C4.99464 15.6895 5.08648 15.6464 5.17832 15.6038C5.43256 15.4857 5.67448 15.3476 5.88952 15.1656C6.244 14.8658 6.447 14.4833 6.51392 14.0263C6.5856 13.5377 6.51784 13.0586 6.41844 12.581C6.40164 12.5 6.41564 12.4102 6.42712 12.3262C6.47808 11.9594 6.4806 11.5959 6.35432 11.2426C6.31652 11.137 6.26164 11.0373 6.20984 10.9374C6.15692 10.8349 6.12696 10.7285 6.12668 10.6128C6.1264 10.5294 6.16196 10.474 6.2398 10.4451C6.26248 10.4367 6.28488 10.4278 6.32268 10.4129C6.27116 10.4062 6.23448 10.4014 6.19388 10.3961C6.25324 10.2679 6.36496 10.1923 6.46072 10.1027C6.18184 10.1511 5.9612 10.2847 5.82876 10.5451C5.5678 10.3793 5.2878 10.3102 4.98792 10.318C4.68776 10.3258 4.41028 10.4138 4.15016 10.5692C4.06868 10.3883 3.94408 10.2603 3.77048 10.1844C3.68844 10.1483 3.60192 10.122 3.51736 10.0915H3.49076C3.59688 10.1805 3.7114 10.2623 3.7786 10.3967C3.73716 10.4009 3.70104 10.4048 3.66324 10.4087C3.66492 10.4157 3.66492 10.421 3.6666 10.4216C3.84748 10.4871 3.85616 10.5202 3.8346 10.7114C3.82676 10.7814 3.80464 10.8598 3.7632 10.915C3.4706 11.3042 3.39892 11.7382 3.48432 12.2069C3.49804 12.283 3.51512 12.3592 3.5392 12.4326C3.55544 12.4818 3.54508 12.5132 3.5112 12.5496C3.11696 12.9749 2.87028 13.4764 2.75352 14.042C2.65552 14.5158 2.65692 14.9929 2.71348 15.472C2.75436 15.8192 2.8308 16.1585 2.92012 16.4951C1.6926 16.6967 0 16.9991 0 16.9991C0 16.9991 1.46888 16.9056 3.0492 16.8554C3.10912 16.9207 3.19424 16.9229 3.30204 16.8596C3.30848 16.856 3.31408 16.8512 3.32052 16.8473C4.48308 16.8146 5.66412 16.8092 6.33192 16.8851C7.44212 17.0111 9.44944 17.612 10.7576 18.4719C10.829 18.5189 10.8654 18.7051 10.8374 18.804C10.6506 19.4622 10.4826 20.1309 10.2287 20.764C9.99292 21.352 9.76192 21.9962 9.34584 22.4468C8.38796 23.4836 7.31864 24.4177 6.29412 25.3926C6.20312 25.4794 6.1068 25.5606 6.013 25.6446C6.02168 25.6726 6.03036 25.7006 6.03904 25.7286C6.1656 25.7286 6.29356 25.7158 6.41844 25.7306C7.7854 25.8916 9.03672 25.5917 10.1909 24.8366C10.5442 24.6053 10.9463 24.4488 11.3896 24.2259V25.7037H14.6241V24.2259C15.0676 24.4488 15.4697 24.6053 15.8228 24.8366C16.977 25.592 18.2283 25.8919 19.5952 25.7306C19.7201 25.716 19.8481 25.7286 19.9746 25.7286C19.9833 25.7006 19.992 25.6726 20.0007 25.6446C19.9069 25.5609 19.8108 25.4794 19.7196 25.3926C18.6948 24.4177 17.6257 23.4833 16.6678 22.4468C16.2518 21.9965 16.0208 21.352 15.785 20.764C15.531 20.1309 15.363 19.4622 15.1763 18.804C15.1483 18.7054 15.1847 18.5189 15.2561 18.4719C16.5642 17.612 18.5716 17.0111 19.6818 16.8851C20.3398 16.8104 21.4956 16.8146 22.6416 16.8459C22.6486 16.8504 22.6551 16.8554 22.6621 16.8596C22.7707 16.9235 22.8564 16.9207 22.9163 16.854C24.5151 16.9039 26.0137 16.9994 26.0137 16.9994C26.0137 16.9994 24.2771 16.6891 23.0462 16.4878L23.0432 16.4884ZM19.3348 8.1354C19.3029 8.08948 19.2948 8.00968 19.3169 7.91952C19.4141 7.96404 19.5107 8.00828 19.6078 8.05308C19.5258 8.07772 19.4345 8.10488 19.3348 8.1354ZM20.8928 8.15444C20.9149 8.23564 20.93 8.3188 20.9496 8.40616C20.9026 8.41176 20.8636 8.41624 20.8242 8.421C20.806 8.34512 20.7897 8.27148 20.7715 8.19896C20.8113 8.1844 20.8519 8.16928 20.893 8.15444H20.8928ZM20.4865 7.30128C20.5806 7.44716 20.6674 7.5964 20.7413 7.75236C20.6996 7.76132 20.6584 7.77028 20.6181 7.77924C20.5083 7.54628 20.3686 7.32844 20.2275 7.11116C20.0323 6.81016 19.8324 6.5114 19.6574 6.19892C19.4888 5.89764 19.4124 5.56836 19.4698 5.21836C19.4883 5.1058 19.4911 5.10272 19.6174 5.11252C19.5054 5.58152 19.6552 5.99396 19.8887 6.38176C20.0771 6.6948 20.2882 6.99412 20.4865 7.301V7.30128ZM18.7919 4.8104C18.6105 4.77596 18.4338 4.72808 18.2706 4.63932C17.9953 4.4898 17.845 4.25768 17.822 3.94688C17.8021 3.67724 17.8511 3.423 18.0032 3.19256C18.1992 2.89548 18.51 2.84816 18.7807 3.08084C18.8359 3.12816 18.8874 3.18136 18.9342 3.23708C18.9809 3.2928 19.0196 3.35524 19.0579 3.409C19.14 3.30344 19.2102 3.18808 19.304 3.0968C19.5356 2.8714 19.8094 2.88008 20.0502 3.09596C20.4201 3.42804 20.4938 4.1874 19.9559 4.571C19.6056 4.82076 19.2136 4.89076 18.7925 4.81068L18.7919 4.8104ZM18.7732 8.23424C18.7608 8.26308 18.7519 8.29164 18.7454 8.32048C18.6606 8.34792 18.5732 8.37676 18.4834 8.40672C18.5732 8.22892 18.653 8.18608 18.7732 8.23424ZM5.90744 3.09596C6.14824 2.8798 6.4218 2.8714 6.65364 3.0968C6.74744 3.18808 6.81772 3.30344 6.89976 3.409C6.93784 3.35524 6.97676 3.2928 7.02352 3.23708C7.07028 3.18136 7.12152 3.12816 7.17696 3.08084C7.44772 2.84816 7.75852 2.89548 7.95452 3.19256C8.10656 3.42328 8.15556 3.67724 8.13568 3.94688C8.11272 4.25768 7.96208 4.4898 7.68712 4.63932C7.5236 4.72808 7.3472 4.77596 7.16576 4.8104C6.74464 4.89048 6.35264 4.82048 6.00236 4.57072C5.46448 4.18712 5.53812 3.42804 5.908 3.09568L5.90744 3.09596ZM5.13296 8.421C5.09348 8.41624 5.05456 8.41176 5.00752 8.40616C5.02796 8.3146 5.04336 8.22752 5.06716 8.14268C5.06772 8.141 5.06828 8.1396 5.06856 8.13792C5.10944 8.15276 5.15004 8.1676 5.1898 8.18216C5.16936 8.26 5.15228 8.33924 5.13296 8.421ZM5.72964 7.11116C5.59076 7.32564 5.45272 7.54012 5.34352 7.76944C5.3032 7.76048 5.26204 7.7518 5.22032 7.74284C5.29312 7.59052 5.37824 7.44436 5.47064 7.30156C5.66888 6.9944 5.88 6.69508 6.06844 6.38232C6.30196 5.99452 6.45176 5.58208 6.33976 5.11308C6.46604 5.103 6.46884 5.10636 6.48732 5.21892C6.54472 5.56892 6.46856 5.8982 6.29972 6.19948C6.12472 6.51196 5.9248 6.81072 5.72964 7.11172V7.11116ZM6.62928 8.12252C6.53408 8.09368 6.44644 8.06736 6.3686 8.04412C6.45932 8.00268 6.5492 7.96124 6.63992 7.91952C6.66036 8.00212 6.65476 8.07548 6.62928 8.12252ZM7.20692 8.30284C7.20076 8.27988 7.19376 8.25692 7.18396 8.23396C7.29932 8.18776 7.37744 8.22584 7.46312 8.38656C7.3752 8.35744 7.2898 8.32944 7.2072 8.30284H7.20692ZM3.26564 16.0412C3.2396 16.1322 3.22112 16.2252 3.19816 16.3215C3.15868 16.3167 3.11976 16.3122 3.07272 16.3066C3.09316 16.2151 3.10856 16.128 3.13236 16.0432C3.21776 15.7394 3.3656 15.465 3.53556 15.2018C3.7338 14.8946 3.94492 14.5953 4.13336 14.2822C4.36688 13.8944 4.51668 13.482 4.40468 13.013C4.53096 13.0029 4.53376 13.0063 4.55224 13.1188C4.60964 13.4688 4.53348 13.7981 4.36464 14.0994C4.18964 14.4119 3.98972 14.7106 3.79456 15.0116C3.58316 15.3376 3.37316 15.6632 3.26536 16.0415L3.26564 16.0412ZM4.12552 16.154C4.01492 16.1924 3.9424 16.2579 3.91132 16.3481C3.8626 16.3542 3.81612 16.3598 3.77328 16.3654C3.8836 16.2607 4.00988 16.1745 4.144 16.0969C4.14708 16.0952 4.1524 16.0969 4.17844 16.0986C4.15464 16.1244 4.14316 16.1482 4.12552 16.1543V16.154ZM4.3624 16.2946C4.40384 16.2806 4.44528 16.2758 4.48532 16.2806C4.4436 16.2854 4.40272 16.2898 4.3624 16.2946ZM4.64884 16.0689C4.57968 16.1003 4.4688 16.0513 4.4044 15.9578C4.50492 15.9116 4.60488 15.8659 4.7054 15.8197C4.7348 15.9393 4.711 16.0406 4.64912 16.0689H4.64884ZM4.067 12.4709C3.52912 12.0873 3.60276 11.3282 3.97264 10.9959C4.21344 10.7797 4.487 10.7713 4.71884 10.9967C4.81264 11.088 4.88292 11.2034 4.96496 11.3089C5.00304 11.2552 5.04196 11.1927 5.08872 11.137C5.13548 11.0813 5.18672 11.0281 5.24216 10.9808C5.51292 10.7481 5.82372 10.7954 6.01972 11.0925C6.17176 11.3232 6.22076 11.5772 6.20088 11.8468C6.17792 12.1576 6.02728 12.3897 5.75232 12.5392C5.5888 12.628 5.4124 12.6759 5.23096 12.7103C4.80984 12.7904 4.41784 12.7204 4.06756 12.4706L4.067 12.4709ZM5.27072 16.1977C5.26484 16.1767 5.25812 16.1554 5.24916 16.1344C5.33232 16.1011 5.39616 16.1115 5.4572 16.1798C5.3956 16.1857 5.33316 16.1916 5.27072 16.1977ZM12.322 6.20956H12.1066V6.21012H12.0728C12.1612 6.03764 12.2408 5.9962 12.3592 6.04352C12.3357 6.09868 12.3236 6.15384 12.322 6.20956ZM12.378 2.61996C12.1965 2.58552 12.0198 2.53764 11.8566 2.44888C11.5814 2.29936 11.431 2.06724 11.408 1.75644C11.3882 1.4868 11.4372 1.23256 11.5892 1.00212C11.7852 0.70504 12.096 0.65772 12.3668 0.8904C12.4219 0.93772 12.4734 0.99092 12.5202 1.04664C12.567 1.10236 12.6056 1.1648 12.644 1.21856C12.726 1.113 12.7963 0.99764 12.8901 0.90636C13.1216 0.68096 13.3955 0.68964 13.6363 0.90552C14.0062 1.2376 14.0798 1.99696 13.5419 2.38056C13.1916 2.63032 12.7996 2.70032 12.3785 2.62024L12.378 2.61996ZM12.6997 6.20956H12.5062C12.5572 6.16728 12.623 6.14404 12.7145 6.153C12.7086 6.17204 12.7036 6.1908 12.6997 6.20956ZM12.9595 5.97828C12.8974 5.95 12.8736 5.84864 12.9032 5.72908C13.0038 5.77528 13.1034 5.82092 13.2042 5.86712C13.1398 5.96064 13.0287 6.00964 12.9598 5.97828H12.9595ZM13.0502 6.20956C13.1174 6.18128 13.1897 6.18072 13.2625 6.20956H13.0502ZM13.6749 6.20956C13.6371 6.14404 13.5727 6.09448 13.4826 6.0634C13.4649 6.05724 13.4534 6.03344 13.4296 6.00768C13.4557 6.00628 13.461 6.00432 13.4641 6.00628C13.5694 6.06704 13.6696 6.13368 13.7614 6.20984H13.6746L13.6749 6.20956ZM14.3427 5.95028C14.2349 5.572 14.0246 5.24636 13.8135 4.92044C13.6184 4.61944 13.4184 4.32068 13.2434 4.0082C13.0749 3.70692 12.9984 3.37764 13.0558 3.02764C13.0743 2.91508 13.0771 2.912 13.2034 2.9218C13.0914 3.3908 13.2412 3.80324 13.4747 4.19104C13.6632 4.50408 13.8743 4.8034 14.0725 5.11056C14.2425 5.37376 14.3903 5.64844 14.4757 5.95196C14.4995 6.0368 14.5149 6.12388 14.5354 6.21544C14.5054 6.21908 14.4791 6.22216 14.4536 6.22524V6.20928H14.4052C14.3844 6.1208 14.3665 6.03428 14.3424 5.95L14.3427 5.95028ZM20.6875 16.193C20.6259 16.1871 20.5646 16.1812 20.5041 16.1756C20.564 16.1112 20.627 16.102 20.7082 16.1344C20.6998 16.154 20.6934 16.1736 20.6878 16.193H20.6875ZM20.7267 12.7106C20.5453 12.6762 20.3686 12.6283 20.2054 12.5395C19.9301 12.39 19.7798 12.1579 19.7568 11.8471C19.7369 11.5774 19.7859 11.3232 19.938 11.0928C20.134 10.7957 20.4448 10.7484 20.7155 10.981C20.7707 11.0284 20.8222 11.0816 20.869 11.1373C20.9157 11.193 20.9544 11.2554 20.9927 11.3092C21.0748 11.2036 21.145 11.0883 21.2388 10.997C21.4704 10.7716 21.7442 10.7803 21.985 10.9962C22.3549 11.3282 22.4286 12.0876 21.8907 12.4712C21.5404 12.721 21.1484 12.791 20.7273 12.7109L20.7267 12.7106ZM21.3083 16.0689C21.2461 16.0406 21.2223 15.9393 21.252 15.8197C21.3525 15.8659 21.4522 15.9116 21.553 15.9578C21.4886 16.0513 21.3777 16.1003 21.3086 16.0689H21.3083ZM21.5065 16.2789C21.5244 16.2789 21.5424 16.2812 21.5606 16.2851C21.5426 16.2831 21.5247 16.2812 21.5065 16.2789ZM22.0436 16.3416C22.0111 16.2548 21.9394 16.1916 21.8313 16.154C21.8137 16.1479 21.8022 16.1241 21.7784 16.0983C21.8044 16.0969 21.8098 16.095 21.8128 16.0966C21.9439 16.1722 22.0671 16.2565 22.1754 16.3579C22.1337 16.3526 22.0898 16.3472 22.0433 16.3416H22.0436ZM22.7587 16.3212C22.7357 16.2252 22.7172 16.1319 22.6912 16.0409C22.5834 15.6626 22.3731 15.337 22.162 15.0111C21.9668 14.7101 21.7669 14.4113 21.5919 14.0988C21.4234 13.7976 21.3469 13.4683 21.4043 13.1183C21.4228 13.0057 21.4256 13.0026 21.5519 13.0124C21.4399 13.4814 21.5897 13.8939 21.8232 14.2817C22.0116 14.5947 22.2228 14.894 22.421 15.2012C22.591 15.4644 22.7388 15.7391 22.8242 16.0426C22.848 16.1274 22.8634 16.2145 22.8838 16.3061C22.8368 16.3117 22.7979 16.3162 22.7584 16.3209L22.7587 16.3212Z" fill="#292D32"/>
</svg>
