<svg width="28" height="28" viewBox="0 0 28 28" fill="none" xmlns="http://www.w3.org/2000/svg">
<path d="M13.7312 13.1367C13.6973 13.1367 13.6748 13.1367 13.6409 13.1367C13.5844 13.1254 13.5054 13.1254 13.4376 13.1367C10.1628 13.035 7.68976 10.4604 7.68976 7.28718C7.68976 4.05753 10.3209 1.42639 13.5505 1.42639C16.7802 1.42639 19.4113 4.05753 19.4113 7.28718C19.4 10.4604 16.9157 13.035 13.7651 13.1367C13.7538 13.1367 13.7425 13.1367 13.7312 13.1367ZM13.5505 3.12026C11.2582 3.12026 9.38363 4.99481 9.38363 7.28718C9.38363 9.54567 11.1453 11.3638 13.3925 11.4428C13.4489 11.4315 13.607 11.4315 13.7538 11.4428C15.9671 11.3412 17.7062 9.52309 17.7175 7.28718C17.7175 4.99481 15.8429 3.12026 13.5505 3.12026Z" fill="#292D32"/>
<path d="M13.7425 25.4794C11.5292 25.4794 9.30455 24.9148 7.62197 23.7856C6.05232 22.7467 5.19409 21.3238 5.19409 19.7767C5.19409 18.2297 6.05232 16.7955 7.62197 15.7453C11.0097 13.4981 16.4978 13.4981 19.863 15.7453C21.4214 16.7842 22.2909 18.2071 22.2909 19.7542C22.2909 21.3012 21.4326 22.7354 19.863 23.7856C18.1691 24.9148 15.9558 25.4794 13.7425 25.4794ZM8.55924 17.1682C7.47517 17.8909 6.88796 18.8169 6.88796 19.788C6.88796 20.7479 7.48646 21.6739 8.55924 22.3853C11.3711 24.2711 16.1139 24.2711 18.9257 22.3853C20.0098 21.6626 20.597 20.7366 20.597 19.7655C20.597 18.8056 19.9985 17.8796 18.9257 17.1682C16.1139 15.2936 11.3711 15.2936 8.55924 17.1682Z" fill="#292D32"/>
</svg>
