<svg width="29" height="29" viewBox="0 0 29 29" fill="none" xmlns="http://www.w3.org/2000/svg">
<path d="M14.5 19.0312C11.9987 19.0312 9.96875 17.0012 9.96875 14.4999C9.96875 11.9987 11.9987 9.96869 14.5 9.96869C17.0012 9.96869 19.0312 11.9987 19.0312 14.4999C19.0312 17.0012 17.0012 19.0312 14.5 19.0312ZM14.5 11.7812C13.0017 11.7812 11.7812 13.0016 11.7812 14.4999C11.7812 15.9983 13.0017 17.2187 14.5 17.2187C15.9983 17.2187 17.2187 15.9983 17.2187 14.4999C17.2187 13.0016 15.9983 11.7812 14.5 11.7812Z" fill="#292D32"/>
<path d="M18.3788 26.813C18.125 26.813 17.8713 26.7767 17.6175 26.7163C16.8684 26.5109 16.24 26.0396 15.8413 25.3751L15.6963 25.1334C14.9834 23.9009 14.0046 23.9009 13.2917 25.1334L13.1588 25.363C12.76 26.0396 12.1317 26.523 11.3825 26.7163C10.6213 26.9217 9.83585 26.813 9.17127 26.4142L7.09294 25.218C6.35585 24.7951 5.82419 24.1063 5.5946 23.2726C5.3771 22.4388 5.48585 21.5809 5.90877 20.8438C6.25919 20.2276 6.35585 19.6717 6.15044 19.3213C5.94502 18.9709 5.42544 18.7655 4.71252 18.7655C2.94835 18.7655 1.51044 17.3276 1.51044 15.5634V13.4367C1.51044 11.6726 2.94835 10.2346 4.71252 10.2346C5.42544 10.2346 5.94502 10.0292 6.15044 9.67881C6.35585 9.3284 6.27127 8.77256 5.90877 8.15631C5.48585 7.41923 5.3771 6.54923 5.5946 5.72756C5.8121 4.89381 6.34377 4.20506 7.09294 3.78214L9.18335 2.58589C10.5488 1.77631 12.3492 2.24756 13.1709 3.63714L13.3159 3.87881C14.0288 5.11131 15.0075 5.11131 15.7204 3.87881L15.8534 3.64923C16.675 2.24756 18.4754 1.77631 19.8529 2.59798L21.9313 3.79423C22.6684 4.21714 23.2 4.90589 23.4296 5.73964C23.6471 6.57339 23.5384 7.43131 23.1154 8.1684C22.765 8.78465 22.6684 9.34048 22.8738 9.6909C23.0792 10.0413 23.5988 10.2467 24.3117 10.2467C26.0759 10.2467 27.5138 11.6846 27.5138 13.4488V15.5755C27.5138 17.3396 26.0759 18.7776 24.3117 18.7776C23.5988 18.7776 23.0792 18.983 22.8738 19.3334C22.6684 19.6838 22.7529 20.2396 23.1154 20.8559C23.5384 21.593 23.6592 22.463 23.4296 23.2846C23.2121 24.1184 22.6804 24.8071 21.9313 25.2301L19.8409 26.4263C19.3817 26.6801 18.8863 26.813 18.3788 26.813ZM14.5 22.3421C15.5754 22.3421 16.5784 23.0188 17.2671 24.2151L17.4 24.4446C17.545 24.6984 17.7867 24.8796 18.0767 24.9521C18.3667 25.0246 18.6567 24.9884 18.8984 24.8434L20.9888 23.6351C21.3029 23.4538 21.5446 23.1517 21.6413 22.7892C21.7379 22.4267 21.6896 22.0521 21.5084 21.738C20.8196 20.5538 20.735 19.3334 21.2667 18.403C21.7984 17.4726 22.8979 16.9409 24.2754 16.9409C25.0488 16.9409 25.665 16.3246 25.665 15.5513V13.4246C25.665 12.6634 25.0488 12.0351 24.2754 12.0351C22.8979 12.0351 21.7984 11.5034 21.2667 10.573C20.735 9.64256 20.8196 8.42214 21.5084 7.23798C21.6896 6.92381 21.7379 6.54923 21.6413 6.18673C21.5446 5.82423 21.315 5.53423 21.0009 5.34089L18.9104 4.14464C18.3909 3.83048 17.7021 4.01173 17.3879 4.54339L17.255 4.77298C16.5663 5.96923 15.5634 6.64589 14.4879 6.64589C13.4125 6.64589 12.4096 5.96923 11.7209 4.77298L11.5879 4.53131C11.2859 4.02381 10.6092 3.84256 10.0896 4.14464L7.99919 5.35298C7.68502 5.53423 7.44335 5.83631 7.34669 6.19881C7.25002 6.56131 7.29835 6.93589 7.4796 7.25006C8.16835 8.43423 8.25294 9.65465 7.72127 10.5851C7.1896 11.5155 6.09002 12.0471 4.71252 12.0471C3.93919 12.0471 3.32294 12.6634 3.32294 13.4367V15.5634C3.32294 16.3246 3.93919 16.953 4.71252 16.953C6.09002 16.953 7.1896 17.4846 7.72127 18.4151C8.25294 19.3455 8.16835 20.5659 7.4796 21.7501C7.29835 22.0642 7.25002 22.4388 7.34669 22.8013C7.44335 23.1638 7.67294 23.4538 7.9871 23.6471L10.0775 24.8434C10.3313 25.0005 10.6334 25.0367 10.9113 24.9642C11.2013 24.8917 11.4429 24.6984 11.6 24.4446L11.7329 24.2151C12.4217 23.0309 13.4246 22.3421 14.5 22.3421Z" fill="#292D32"/>
</svg>
