<svg width="29" height="30" viewBox="0 0 29 30" fill="none" xmlns="http://www.w3.org/2000/svg">
<path d="M12.216 13.5897H9.01389C8.25264 13.5897 7.63641 14.2059 7.63641 14.9672V21.1538H12.216V13.5897V13.5897Z" stroke="#292D32" stroke-width="1.5" stroke-miterlimit="10" stroke-linecap="round" stroke-linejoin="round"/>
<path d="M15.4196 8.0918H13.5829C12.8217 8.0918 12.2054 8.70806 12.2054 9.46931V21.1419H16.785V9.46931C16.785 8.70806 16.1809 8.0918 15.4196 8.0918Z" stroke="#292D32" stroke-width="1.5" stroke-miterlimit="10" stroke-linecap="round" stroke-linejoin="round"/>
<path d="M19.9954 15.6439H16.7933V21.1419H21.3729V17.0214C21.3608 16.2602 20.7446 15.6439 19.9954 15.6439Z" stroke="#292D32" stroke-width="1.5" stroke-miterlimit="10" stroke-linecap="round" stroke-linejoin="round"/>
<path d="M10.8748 26.7001H18.1248C24.1664 26.7001 26.5831 24.2834 26.5831 18.2418V10.9918C26.5831 4.95011 24.1664 2.53345 18.1248 2.53345H10.8748C4.83311 2.53345 2.41644 4.95011 2.41644 10.9918V18.2418C2.41644 24.2834 4.83311 26.7001 10.8748 26.7001Z" stroke="#292D32" stroke-width="1.5" stroke-linecap="round" stroke-linejoin="round"/>
</svg>
